<mxfile host="app.diagrams.net" modified="2024-07-02T11:56:51.768Z" agent="Mozilla/5.0 (Windows NT 10.0; Win64; x64) AppleWebKit/537.36 (KHTML, like Gecko) Chrome/126.0.0.0 Safari/537.36" etag="OopDMpbLec24uPB0uKtv" version="24.6.4" type="github">
  <diagram name="第 1 页" id="-JcrP6sb5yPzt_bJwtD2">
    <mxGraphModel dx="2261" dy="746" grid="1" gridSize="10" guides="1" tooltips="1" connect="1" arrows="1" fold="1" page="1" pageScale="1" pageWidth="827" pageHeight="1169" math="0" shadow="0">
      <root>
        <mxCell id="0" />
        <mxCell id="1" parent="0" />
        <mxCell id="jaR9EcnGW5sunwdylE8c-1" value="" style="rounded=0;whiteSpace=wrap;html=1;" vertex="1" parent="1">
          <mxGeometry x="200" y="92" width="440" height="650" as="geometry" />
        </mxCell>
        <mxCell id="jaR9EcnGW5sunwdylE8c-2" value="" style="rounded=0;whiteSpace=wrap;html=1;rotation=90;" vertex="1" parent="1">
          <mxGeometry x="-600" y="399.41" width="600" height="80" as="geometry" />
        </mxCell>
        <mxCell id="jaR9EcnGW5sunwdylE8c-3" value="" style="rounded=0;whiteSpace=wrap;html=1;rotation=90;" vertex="1" parent="1">
          <mxGeometry x="-295" y="375" width="650" height="80" as="geometry" />
        </mxCell>
        <mxCell id="jaR9EcnGW5sunwdylE8c-4" value="" style="rounded=0;whiteSpace=wrap;html=1;fillColor=#ffe6cc;strokeColor=#d79b00;rotation=90;" vertex="1" parent="1">
          <mxGeometry x="-582.5" y="409.41" width="565" height="70" as="geometry" />
        </mxCell>
        <mxCell id="jaR9EcnGW5sunwdylE8c-5" value="" style="edgeStyle=orthogonalEdgeStyle;rounded=0;orthogonalLoop=1;jettySize=auto;html=1;" edge="1" parent="1" source="jaR9EcnGW5sunwdylE8c-6" target="jaR9EcnGW5sunwdylE8c-8">
          <mxGeometry relative="1" as="geometry" />
        </mxCell>
        <mxCell id="jaR9EcnGW5sunwdylE8c-6" value="T1" style="shape=cylinder3;whiteSpace=wrap;html=1;boundedLbl=1;backgroundOutline=1;size=15;" vertex="1" parent="1">
          <mxGeometry x="-330" y="215" width="60" height="50" as="geometry" />
        </mxCell>
        <mxCell id="jaR9EcnGW5sunwdylE8c-7" value="" style="edgeStyle=orthogonalEdgeStyle;rounded=0;orthogonalLoop=1;jettySize=auto;html=1;" edge="1" parent="1" source="jaR9EcnGW5sunwdylE8c-8" target="jaR9EcnGW5sunwdylE8c-9">
          <mxGeometry relative="1" as="geometry" />
        </mxCell>
        <mxCell id="jaR9EcnGW5sunwdylE8c-8" value="T2" style="shape=cylinder3;whiteSpace=wrap;html=1;boundedLbl=1;backgroundOutline=1;size=15;" vertex="1" parent="1">
          <mxGeometry x="-330" y="305" width="60" height="50" as="geometry" />
        </mxCell>
        <mxCell id="jaR9EcnGW5sunwdylE8c-9" value="T3" style="shape=cylinder3;whiteSpace=wrap;html=1;boundedLbl=1;backgroundOutline=1;size=15;" vertex="1" parent="1">
          <mxGeometry x="-330" y="395" width="60" height="50" as="geometry" />
        </mxCell>
        <mxCell id="jaR9EcnGW5sunwdylE8c-10" style="rounded=0;orthogonalLoop=1;jettySize=auto;html=1;entryX=0.5;entryY=1;entryDx=0;entryDy=0;edgeStyle=orthogonalEdgeStyle;curved=1;" edge="1" parent="1" source="jaR9EcnGW5sunwdylE8c-11" target="jaR9EcnGW5sunwdylE8c-14">
          <mxGeometry relative="1" as="geometry" />
        </mxCell>
        <mxCell id="jaR9EcnGW5sunwdylE8c-11" value="T5" style="shape=cylinder3;whiteSpace=wrap;html=1;boundedLbl=1;backgroundOutline=1;size=15;" vertex="1" parent="1">
          <mxGeometry x="-330" y="535" width="60" height="50" as="geometry" />
        </mxCell>
        <mxCell id="jaR9EcnGW5sunwdylE8c-12" value="&lt;b&gt;......&lt;/b&gt;" style="text;strokeColor=none;align=center;fillColor=none;html=1;verticalAlign=middle;whiteSpace=wrap;rounded=0;rotation=90;" vertex="1" parent="1">
          <mxGeometry x="-330" y="480" width="60" height="30" as="geometry" />
        </mxCell>
        <mxCell id="jaR9EcnGW5sunwdylE8c-13" style="edgeStyle=orthogonalEdgeStyle;rounded=0;orthogonalLoop=1;jettySize=auto;html=1;entryX=0.5;entryY=1;entryDx=0;entryDy=0;curved=1;exitX=0.5;exitY=0;exitDx=0;exitDy=0;" edge="1" parent="1" source="jaR9EcnGW5sunwdylE8c-14" target="jaR9EcnGW5sunwdylE8c-16">
          <mxGeometry relative="1" as="geometry" />
        </mxCell>
        <mxCell id="jaR9EcnGW5sunwdylE8c-14" value="任务相似度计算" style="rounded=0;whiteSpace=wrap;html=1;fillColor=#e1d5e7;strokeColor=#9673a6;rotation=90;" vertex="1" parent="1">
          <mxGeometry x="-210" y="333.75" width="120" height="35" as="geometry" />
        </mxCell>
        <mxCell id="jaR9EcnGW5sunwdylE8c-15" style="edgeStyle=orthogonalEdgeStyle;rounded=0;orthogonalLoop=1;jettySize=auto;html=1;entryX=0.5;entryY=1;entryDx=0;entryDy=0;" edge="1" parent="1" source="jaR9EcnGW5sunwdylE8c-16" target="jaR9EcnGW5sunwdylE8c-26">
          <mxGeometry relative="1" as="geometry" />
        </mxCell>
        <mxCell id="jaR9EcnGW5sunwdylE8c-16" value="" style="rounded=1;whiteSpace=wrap;html=1;fillColor=#f8cecc;strokeColor=#b85450;rotation=90;" vertex="1" parent="1">
          <mxGeometry x="-50" y="170" width="160" height="60" as="geometry" />
        </mxCell>
        <mxCell id="jaR9EcnGW5sunwdylE8c-17" value="T1" style="shape=cylinder3;whiteSpace=wrap;html=1;boundedLbl=1;backgroundOutline=1;size=15;" vertex="1" parent="1">
          <mxGeometry y="135" width="60" height="50" as="geometry" />
        </mxCell>
        <mxCell id="jaR9EcnGW5sunwdylE8c-18" value="T3" style="shape=cylinder3;whiteSpace=wrap;html=1;boundedLbl=1;backgroundOutline=1;size=15;" vertex="1" parent="1">
          <mxGeometry y="200" width="60" height="50" as="geometry" />
        </mxCell>
        <mxCell id="jaR9EcnGW5sunwdylE8c-19" value="" style="edgeStyle=orthogonalEdgeStyle;rounded=0;orthogonalLoop=1;jettySize=auto;html=1;" edge="1" parent="1" source="jaR9EcnGW5sunwdylE8c-20" target="jaR9EcnGW5sunwdylE8c-29">
          <mxGeometry relative="1" as="geometry" />
        </mxCell>
        <mxCell id="jaR9EcnGW5sunwdylE8c-20" value="" style="rounded=1;whiteSpace=wrap;html=1;fillColor=#d5e8d4;strokeColor=#82b366;direction=south;" vertex="1" parent="1">
          <mxGeometry y="550" width="60" height="150" as="geometry" />
        </mxCell>
        <mxCell id="jaR9EcnGW5sunwdylE8c-21" value="T4" style="shape=cylinder3;whiteSpace=wrap;html=1;boundedLbl=1;backgroundOutline=1;size=15;" vertex="1" parent="1">
          <mxGeometry y="560" width="60" height="50" as="geometry" />
        </mxCell>
        <mxCell id="jaR9EcnGW5sunwdylE8c-22" value="T5" style="shape=cylinder3;whiteSpace=wrap;html=1;boundedLbl=1;backgroundOutline=1;size=15;" vertex="1" parent="1">
          <mxGeometry y="640" width="60" height="50" as="geometry" />
        </mxCell>
        <mxCell id="jaR9EcnGW5sunwdylE8c-23" style="edgeStyle=orthogonalEdgeStyle;rounded=0;orthogonalLoop=1;jettySize=auto;html=1;entryX=0.587;entryY=1.033;entryDx=0;entryDy=0;entryPerimeter=0;curved=1;" edge="1" parent="1" source="jaR9EcnGW5sunwdylE8c-14" target="jaR9EcnGW5sunwdylE8c-34">
          <mxGeometry relative="1" as="geometry" />
        </mxCell>
        <mxCell id="jaR9EcnGW5sunwdylE8c-24" value="" style="edgeStyle=orthogonalEdgeStyle;rounded=0;orthogonalLoop=1;jettySize=auto;html=1;" edge="1" parent="1" source="jaR9EcnGW5sunwdylE8c-26" target="jaR9EcnGW5sunwdylE8c-60">
          <mxGeometry relative="1" as="geometry" />
        </mxCell>
        <mxCell id="jaR9EcnGW5sunwdylE8c-25" style="edgeStyle=orthogonalEdgeStyle;rounded=0;orthogonalLoop=1;jettySize=auto;html=1;entryX=0.5;entryY=1;entryDx=0;entryDy=0;" edge="1" parent="1" source="jaR9EcnGW5sunwdylE8c-26" target="jaR9EcnGW5sunwdylE8c-63">
          <mxGeometry relative="1" as="geometry" />
        </mxCell>
        <mxCell id="jaR9EcnGW5sunwdylE8c-26" value="" style="rounded=0;whiteSpace=wrap;html=1;rotation=90;" vertex="1" parent="1">
          <mxGeometry x="290" y="92" width="160" height="216.88" as="geometry" />
        </mxCell>
        <mxCell id="jaR9EcnGW5sunwdylE8c-27" value="" style="edgeStyle=orthogonalEdgeStyle;rounded=0;orthogonalLoop=1;jettySize=auto;html=1;" edge="1" parent="1" source="jaR9EcnGW5sunwdylE8c-29" target="jaR9EcnGW5sunwdylE8c-62">
          <mxGeometry relative="1" as="geometry" />
        </mxCell>
        <mxCell id="jaR9EcnGW5sunwdylE8c-28" style="edgeStyle=orthogonalEdgeStyle;rounded=0;orthogonalLoop=1;jettySize=auto;html=1;entryX=0.5;entryY=1;entryDx=0;entryDy=0;" edge="1" parent="1" source="jaR9EcnGW5sunwdylE8c-29" target="jaR9EcnGW5sunwdylE8c-64">
          <mxGeometry relative="1" as="geometry" />
        </mxCell>
        <mxCell id="jaR9EcnGW5sunwdylE8c-29" value="" style="rounded=0;whiteSpace=wrap;html=1;direction=south;" vertex="1" parent="1">
          <mxGeometry x="260" y="545" width="232.5" height="160" as="geometry" />
        </mxCell>
        <mxCell id="jaR9EcnGW5sunwdylE8c-30" value="&lt;font style=&quot;font-size: 16px;&quot; face=&quot;Times New Roman&quot;&gt;&lt;b&gt;&lt;i&gt;任务组&lt;/i&gt;&lt;/b&gt;&lt;/font&gt;" style="text;html=1;align=center;verticalAlign=middle;resizable=0;points=[];autosize=1;strokeColor=none;fillColor=none;" vertex="1" parent="1">
          <mxGeometry x="-5" y="50" width="70" height="30" as="geometry" />
        </mxCell>
        <mxCell id="jaR9EcnGW5sunwdylE8c-31" value="&lt;font face=&quot;Times New Roman&quot;&gt;&lt;span style=&quot;font-size: 16px;&quot;&gt;&lt;b&gt;&lt;i&gt;任务序列&lt;/i&gt;&lt;/b&gt;&lt;/span&gt;&lt;/font&gt;" style="text;html=1;align=center;verticalAlign=middle;resizable=0;points=[];autosize=1;strokeColor=none;fillColor=none;rotation=0;" vertex="1" parent="1">
          <mxGeometry x="-345" y="105" width="90" height="30" as="geometry" />
        </mxCell>
        <mxCell id="jaR9EcnGW5sunwdylE8c-32" value="&lt;font face=&quot;Times New Roman&quot; style=&quot;font-size: 16px;&quot;&gt;&lt;i&gt;&lt;b&gt;网络&lt;/b&gt;&lt;/i&gt;&lt;/font&gt;" style="text;html=1;align=center;verticalAlign=middle;resizable=0;points=[];autosize=1;strokeColor=none;fillColor=none;" vertex="1" parent="1">
          <mxGeometry x="370" y="52" width="60" height="30" as="geometry" />
        </mxCell>
        <mxCell id="jaR9EcnGW5sunwdylE8c-33" style="edgeStyle=orthogonalEdgeStyle;rounded=0;orthogonalLoop=1;jettySize=auto;html=1;curved=1;entryX=0.5;entryY=1;entryDx=0;entryDy=0;" edge="1" parent="1" source="jaR9EcnGW5sunwdylE8c-34" target="jaR9EcnGW5sunwdylE8c-52">
          <mxGeometry relative="1" as="geometry">
            <mxPoint x="360" y="410" as="targetPoint" />
          </mxGeometry>
        </mxCell>
        <mxCell id="jaR9EcnGW5sunwdylE8c-34" value="" style="rounded=1;whiteSpace=wrap;html=1;fillColor=#dae8fc;strokeColor=#6c8ebf;rotation=90;" vertex="1" parent="1">
          <mxGeometry x="-45" y="385" width="150" height="60" as="geometry" />
        </mxCell>
        <mxCell id="jaR9EcnGW5sunwdylE8c-35" value="T2" style="shape=cylinder3;whiteSpace=wrap;html=1;boundedLbl=1;backgroundOutline=1;size=15;" vertex="1" parent="1">
          <mxGeometry y="350" width="60" height="50" as="geometry" />
        </mxCell>
        <mxCell id="jaR9EcnGW5sunwdylE8c-36" style="edgeStyle=orthogonalEdgeStyle;rounded=0;orthogonalLoop=1;jettySize=auto;html=1;entryX=0.607;entryY=0.983;entryDx=0;entryDy=0;entryPerimeter=0;curved=1;" edge="1" parent="1" source="jaR9EcnGW5sunwdylE8c-14" target="jaR9EcnGW5sunwdylE8c-20">
          <mxGeometry relative="1" as="geometry" />
        </mxCell>
        <mxCell id="jaR9EcnGW5sunwdylE8c-37" value="" style="shape=cube;whiteSpace=wrap;html=1;boundedLbl=1;backgroundOutline=1;darkOpacity=0.05;darkOpacity2=0.1;rotation=0;flipH=1;fillColor=#f8cecc;strokeColor=#b85450;" vertex="1" parent="1">
          <mxGeometry x="290" y="128.25" width="30" height="137.5" as="geometry" />
        </mxCell>
        <mxCell id="jaR9EcnGW5sunwdylE8c-38" value="" style="shape=cube;whiteSpace=wrap;html=1;boundedLbl=1;backgroundOutline=1;darkOpacity=0.05;darkOpacity2=0.1;rotation=0;flipH=1;fillColor=#f8cecc;strokeColor=#b85450;" vertex="1" parent="1">
          <mxGeometry x="310" y="128.25" width="30" height="137.5" as="geometry" />
        </mxCell>
        <mxCell id="jaR9EcnGW5sunwdylE8c-39" value="" style="shape=cube;whiteSpace=wrap;html=1;boundedLbl=1;backgroundOutline=1;darkOpacity=0.05;darkOpacity2=0.1;rotation=0;flipH=1;fillColor=#f8cecc;strokeColor=#b85450;" vertex="1" parent="1">
          <mxGeometry x="330" y="153.25" width="30" height="87.5" as="geometry" />
        </mxCell>
        <mxCell id="jaR9EcnGW5sunwdylE8c-40" value="" style="shape=cube;whiteSpace=wrap;html=1;boundedLbl=1;backgroundOutline=1;darkOpacity=0.05;darkOpacity2=0.1;rotation=0;flipH=1;fillColor=#f8cecc;strokeColor=#b85450;" vertex="1" parent="1">
          <mxGeometry x="350" y="153.25" width="30" height="87.5" as="geometry" />
        </mxCell>
        <mxCell id="jaR9EcnGW5sunwdylE8c-41" value="" style="shape=cube;whiteSpace=wrap;html=1;boundedLbl=1;backgroundOutline=1;darkOpacity=0.05;darkOpacity2=0.1;rotation=0;flipH=1;size=20;fillColor=#f8cecc;strokeColor=#b85450;" vertex="1" parent="1">
          <mxGeometry x="370" y="166.68" width="40" height="60.63" as="geometry" />
        </mxCell>
        <mxCell id="jaR9EcnGW5sunwdylE8c-42" value="" style="shape=cube;whiteSpace=wrap;html=1;boundedLbl=1;backgroundOutline=1;darkOpacity=0.05;darkOpacity2=0.1;rotation=0;flipH=1;size=20;fillColor=#f8cecc;strokeColor=#b85450;" vertex="1" parent="1">
          <mxGeometry x="400" y="167.93" width="40" height="60.63" as="geometry" />
        </mxCell>
        <mxCell id="jaR9EcnGW5sunwdylE8c-43" value="" style="shape=cube;whiteSpace=wrap;html=1;boundedLbl=1;backgroundOutline=1;darkOpacity=0.05;darkOpacity2=0.1;rotation=0;flipH=1;size=10;fillColor=#f8cecc;strokeColor=#b85450;" vertex="1" parent="1">
          <mxGeometry x="440" y="178.25" width="30" height="40.16" as="geometry" />
        </mxCell>
        <mxCell id="jaR9EcnGW5sunwdylE8c-44" value="" style="shape=cube;whiteSpace=wrap;html=1;boundedLbl=1;backgroundOutline=1;darkOpacity=0.05;darkOpacity2=0.1;rotation=0;flipH=1;fillColor=#d5e8d4;strokeColor=#82b366;" vertex="1" parent="1">
          <mxGeometry x="290" y="558.25" width="30" height="137.5" as="geometry" />
        </mxCell>
        <mxCell id="jaR9EcnGW5sunwdylE8c-45" value="" style="shape=cube;whiteSpace=wrap;html=1;boundedLbl=1;backgroundOutline=1;darkOpacity=0.05;darkOpacity2=0.1;rotation=0;flipH=1;fillColor=#d5e8d4;strokeColor=#82b366;" vertex="1" parent="1">
          <mxGeometry x="310" y="558.25" width="30" height="137.5" as="geometry" />
        </mxCell>
        <mxCell id="jaR9EcnGW5sunwdylE8c-46" value="" style="shape=cube;whiteSpace=wrap;html=1;boundedLbl=1;backgroundOutline=1;darkOpacity=0.05;darkOpacity2=0.1;rotation=0;flipH=1;fillColor=#d5e8d4;strokeColor=#82b366;" vertex="1" parent="1">
          <mxGeometry x="330" y="583.25" width="30" height="87.5" as="geometry" />
        </mxCell>
        <mxCell id="jaR9EcnGW5sunwdylE8c-47" value="" style="shape=cube;whiteSpace=wrap;html=1;boundedLbl=1;backgroundOutline=1;darkOpacity=0.05;darkOpacity2=0.1;rotation=0;flipH=1;fillColor=#d5e8d4;strokeColor=#82b366;" vertex="1" parent="1">
          <mxGeometry x="350" y="583.25" width="30" height="87.5" as="geometry" />
        </mxCell>
        <mxCell id="jaR9EcnGW5sunwdylE8c-48" value="" style="shape=cube;whiteSpace=wrap;html=1;boundedLbl=1;backgroundOutline=1;darkOpacity=0.05;darkOpacity2=0.1;rotation=0;flipH=1;size=20;fillColor=#d5e8d4;strokeColor=#82b366;" vertex="1" parent="1">
          <mxGeometry x="370" y="596.6800000000001" width="40" height="60.63" as="geometry" />
        </mxCell>
        <mxCell id="jaR9EcnGW5sunwdylE8c-49" value="" style="shape=cube;whiteSpace=wrap;html=1;boundedLbl=1;backgroundOutline=1;darkOpacity=0.05;darkOpacity2=0.1;rotation=0;flipH=1;size=20;fillColor=#d5e8d4;strokeColor=#82b366;" vertex="1" parent="1">
          <mxGeometry x="400" y="597.9300000000001" width="40" height="60.63" as="geometry" />
        </mxCell>
        <mxCell id="jaR9EcnGW5sunwdylE8c-50" value="" style="shape=cube;whiteSpace=wrap;html=1;boundedLbl=1;backgroundOutline=1;darkOpacity=0.05;darkOpacity2=0.1;rotation=0;flipH=1;size=10;fillColor=#d5e8d4;strokeColor=#82b366;" vertex="1" parent="1">
          <mxGeometry x="440" y="608.25" width="30" height="40.16" as="geometry" />
        </mxCell>
        <mxCell id="jaR9EcnGW5sunwdylE8c-51" value="" style="edgeStyle=orthogonalEdgeStyle;rounded=0;orthogonalLoop=1;jettySize=auto;html=1;" edge="1" parent="1" source="jaR9EcnGW5sunwdylE8c-52" target="jaR9EcnGW5sunwdylE8c-61">
          <mxGeometry relative="1" as="geometry" />
        </mxCell>
        <mxCell id="jaR9EcnGW5sunwdylE8c-52" value="" style="rounded=0;whiteSpace=wrap;html=1;direction=south;" vertex="1" parent="1">
          <mxGeometry x="260" y="332.5" width="220" height="165" as="geometry" />
        </mxCell>
        <mxCell id="jaR9EcnGW5sunwdylE8c-53" value="" style="shape=cube;whiteSpace=wrap;html=1;boundedLbl=1;backgroundOutline=1;darkOpacity=0.05;darkOpacity2=0.1;rotation=0;flipH=1;fillColor=#dae8fc;strokeColor=#6c8ebf;" vertex="1" parent="1">
          <mxGeometry x="290" y="348.25" width="30" height="137.5" as="geometry" />
        </mxCell>
        <mxCell id="jaR9EcnGW5sunwdylE8c-54" value="" style="shape=cube;whiteSpace=wrap;html=1;boundedLbl=1;backgroundOutline=1;darkOpacity=0.05;darkOpacity2=0.1;rotation=0;flipH=1;fillColor=#dae8fc;strokeColor=#6c8ebf;" vertex="1" parent="1">
          <mxGeometry x="310" y="348.25" width="30" height="137.5" as="geometry" />
        </mxCell>
        <mxCell id="jaR9EcnGW5sunwdylE8c-55" value="" style="shape=cube;whiteSpace=wrap;html=1;boundedLbl=1;backgroundOutline=1;darkOpacity=0.05;darkOpacity2=0.1;rotation=0;flipH=1;fillColor=#dae8fc;strokeColor=#6c8ebf;" vertex="1" parent="1">
          <mxGeometry x="330" y="373.25" width="30" height="87.5" as="geometry" />
        </mxCell>
        <mxCell id="jaR9EcnGW5sunwdylE8c-56" value="" style="shape=cube;whiteSpace=wrap;html=1;boundedLbl=1;backgroundOutline=1;darkOpacity=0.05;darkOpacity2=0.1;rotation=0;flipH=1;fillColor=#dae8fc;strokeColor=#6c8ebf;" vertex="1" parent="1">
          <mxGeometry x="350" y="373.25" width="30" height="87.5" as="geometry" />
        </mxCell>
        <mxCell id="jaR9EcnGW5sunwdylE8c-57" value="" style="shape=cube;whiteSpace=wrap;html=1;boundedLbl=1;backgroundOutline=1;darkOpacity=0.05;darkOpacity2=0.1;rotation=0;flipH=1;size=20;fillColor=#dae8fc;strokeColor=#6c8ebf;" vertex="1" parent="1">
          <mxGeometry x="370" y="386.68000000000006" width="40" height="60.63" as="geometry" />
        </mxCell>
        <mxCell id="jaR9EcnGW5sunwdylE8c-58" value="" style="shape=cube;whiteSpace=wrap;html=1;boundedLbl=1;backgroundOutline=1;darkOpacity=0.05;darkOpacity2=0.1;rotation=0;flipH=1;size=20;fillColor=#dae8fc;strokeColor=#6c8ebf;" vertex="1" parent="1">
          <mxGeometry x="400" y="387.93000000000006" width="40" height="60.63" as="geometry" />
        </mxCell>
        <mxCell id="jaR9EcnGW5sunwdylE8c-59" value="" style="shape=cube;whiteSpace=wrap;html=1;boundedLbl=1;backgroundOutline=1;darkOpacity=0.05;darkOpacity2=0.1;rotation=0;flipH=1;size=10;fillColor=#dae8fc;strokeColor=#6c8ebf;" vertex="1" parent="1">
          <mxGeometry x="440" y="398.25" width="30" height="40.16" as="geometry" />
        </mxCell>
        <mxCell id="jaR9EcnGW5sunwdylE8c-60" value="FC1" style="whiteSpace=wrap;html=1;rotation=90;" vertex="1" parent="1">
          <mxGeometry x="540" y="137.00000000000003" width="65" height="33.67" as="geometry" />
        </mxCell>
        <mxCell id="jaR9EcnGW5sunwdylE8c-61" value="FC2" style="whiteSpace=wrap;html=1;rotation=90;" vertex="1" parent="1">
          <mxGeometry x="537.5" y="398.25" width="65" height="33.67" as="geometry" />
        </mxCell>
        <mxCell id="jaR9EcnGW5sunwdylE8c-62" value="FC4" style="whiteSpace=wrap;html=1;rotation=90;" vertex="1" parent="1">
          <mxGeometry x="540" y="570.0000000000001" width="65" height="33.67" as="geometry" />
        </mxCell>
        <mxCell id="jaR9EcnGW5sunwdylE8c-63" value="FC2" style="whiteSpace=wrap;html=1;rotation=90;" vertex="1" parent="1">
          <mxGeometry x="540" y="227.31000000000003" width="65" height="33.67" as="geometry" />
        </mxCell>
        <mxCell id="jaR9EcnGW5sunwdylE8c-64" value="FC4" style="whiteSpace=wrap;html=1;rotation=90;" vertex="1" parent="1">
          <mxGeometry x="540" y="657.3100000000002" width="65" height="33.67" as="geometry" />
        </mxCell>
        <mxCell id="jaR9EcnGW5sunwdylE8c-65" value="&lt;font style=&quot;font-size: 16px;&quot; face=&quot;Times New Roman&quot;&gt;&lt;b&gt;&lt;i&gt;输出&lt;/i&gt;&lt;/b&gt;&lt;/font&gt;" style="text;html=1;align=center;verticalAlign=middle;resizable=0;points=[];autosize=1;strokeColor=none;fillColor=none;" vertex="1" parent="1">
          <mxGeometry x="540" y="50" width="60" height="30" as="geometry" />
        </mxCell>
      </root>
    </mxGraphModel>
  </diagram>
</mxfile>
